<svg xmlns="http://www.w3.org/2000/svg" viewBox="0 0 24 24"><path fill-rule="evenodd" clip-rule="evenodd" d="M14.3677 19.4043C14.5914 18.97 15.0961 18.761 15.5614 18.9098L17.1143 19.4067L19.4067 17.1142L18.9098 15.5614C18.761 15.0961 18.97 14.5914 19.4043 14.3677L20.8545 13.6206V10.3794L19.4043 9.63228C18.9972 9.42254 18.788 8.96583 18.8861 8.5262C18.8926 8.4969 18.9005 8.46766 18.9098 8.43858L19.4067 6.88573L17.1143 4.59329L15.5614 5.09014C15.0961 5.23901 14.5914 5.02995 14.3677 4.5957L13.6206 3.1455L10.3794 3.1455L9.63229 4.5957C9.42255 5.0028 8.96584 5.21199 8.52621 5.11389C8.4969 5.10735 8.46767 5.09945 8.43859 5.09014L6.88574 4.59329L4.5933 6.88573L5.09015 8.43859C5.23901 8.90384 5.02995 9.40856 4.59571 9.63228L3.14551 10.3794L3.14551 13.6206L4.59571 14.3677C5.02995 14.5914 5.23901 15.0961 5.09015 15.5614L4.5933 17.1142L6.88574 19.4067L8.43859 18.9098C8.90385 18.761 9.40857 18.97 9.63229 19.4043L10.3794 20.8545H13.6206L14.3677 19.4043ZM13.2287 17.651C12.9738 17.8847 12.7559 18.1658 12.5898 18.4883L11.4102 18.4883C11.244 18.1658 11.0262 17.8847 10.7713 17.651C10.2515 17.1745 9.57745 16.8953 8.87291 16.8647C8.52745 16.8497 8.17465 16.8944 7.82911 17.005L6.99502 16.1709C7.10558 15.8253 7.15033 15.4725 7.13531 15.1271C7.10469 14.4225 6.82549 13.7485 6.34897 13.2287C6.1153 12.9738 5.8342 12.7559 5.51169 12.5898V11.4102C5.8342 11.244 6.1153 11.0262 6.34897 10.7713C6.82549 10.2515 7.10469 9.57744 7.13531 8.87291C7.15033 8.52744 7.10558 8.17465 6.99502 7.82911L7.82911 6.99501C8.17465 7.10557 8.52745 7.15032 8.87291 7.13531C9.57745 7.10468 10.2515 6.82548 10.7713 6.34896C11.0262 6.1153 11.244 5.83419 11.4102 5.51168L12.5898 5.51168C12.7559 5.83419 12.9738 6.1153 13.2287 6.34896C13.7485 6.82548 14.4225 7.10468 15.1271 7.13531C15.4725 7.15032 15.8253 7.10557 16.1709 6.99501L17.005 7.8291C16.8944 8.17465 16.8497 8.52744 16.8647 8.87291C16.8953 9.57744 17.1745 10.2515 17.651 10.7713C17.8847 11.0262 18.1658 11.244 18.4883 11.4102L18.4883 12.5898C18.1658 12.7559 17.8847 12.9738 17.651 13.2287C17.1745 13.7485 16.8953 14.4225 16.8647 15.1271C16.8497 15.4725 16.8944 15.8253 17.005 16.1709L16.1709 17.005C15.8253 16.8944 15.4725 16.8497 15.1271 16.8647C14.4225 16.8953 13.7485 17.1745 13.2287 17.651Z"/><path fill-rule="evenodd" clip-rule="evenodd" d="M15 12C15 13.6568 13.6569 15 12 15C10.3431 15 9 13.6568 9 12C9 10.3431 10.3431 8.99999 12 8.99999C13.6569 8.99999 15 10.3431 15 12ZM12 13C12.5523 13 13 12.5523 13 12C13 11.4477 12.5523 11 12 11C11.4477 11 11 11.4477 11 12C11 12.5523 11.4477 13 12 13Z"/></svg>