<svg xmlns="http://www.w3.org/2000/svg" viewBox="0 0 512 512"><path fill-rule="evenodd" clip-rule="evenodd" d="M0 512C18.9512 512 35.4976 501.704 44.3504 486.4C48.7067 478.869 51.2 470.126 51.2 460.8V51.2C51.2 22.923 74.123 0 102.4 0H512C493.049 0 476.502 10.2963 467.65 25.6C463.293 33.1308 460.8 41.8742 460.8 51.2V460.8C460.8 489.077 437.877 512 409.6 512H0Z" fill="#0C0F2E"/><rect x="114.9" y="63.7" width="282.2" height="51.8" rx="25.9" fill="#FBFBF8" stroke="#007893" stroke-width="25"/><path fill="#FBFBF8" stroke="#007893" stroke-width="25" d="M114.9 396.5H294.70000000000005V448.3H114.9z"/><rect x="345.3" y="319.7" width="51.8" height="128.6" rx="25.9" fill="#0C0F2E" stroke="#FBFBF8" stroke-width="25"/><path stroke="#007893" stroke-width="25" stroke-linecap="round" d="M114.9 320.3 166.7 320.3"/><path stroke="#958F8F" stroke-width="25" stroke-linecap="round" d="M217.3 320.3 294.7 320.3M114.9 217.9 397.1 217.9"/><path d="M115.2 268.8H217.6" stroke="#007893" stroke-width="25" stroke-linecap="round"/><path d="M268.8 268.8H396.8M294.1 166.7 320.3 166.7" stroke="#958F8F" stroke-width="25" stroke-linecap="round"/><path stroke="#007893" stroke-width="25" stroke-linecap="round" d="M114.9 166.7 243.5 166.7"/><path stroke="#958F8F" stroke-width="25" stroke-linecap="round" d="M370.9 166.7 397.1 166.7"/></svg>