<svg xmlns="http://www.w3.org/2000/svg" viewBox="0 0 512 512"><path fill-rule="evenodd" clip-rule="evenodd" d="M0 512C18.9512 512 35.4976 501.704 44.3504 486.4C48.7067 478.869 51.2 470.126 51.2 460.8V51.2C51.2 22.923 74.123 0 102.4 0H512C493.049 0 476.502 10.2963 467.65 25.6C463.293 33.1308 460.8 41.8742 460.8 51.2V460.8C460.8 489.077 437.877 512 409.6 512H0Z" fill="#282828"/><path d="M114.9 89.6C114.9 75.2958 126.496 63.7 140.8 63.7H371.2C385.504 63.7 397.1 75.2958 397.1 89.6C397.1 103.904 385.504 115.5 371.2 115.5H140.8C126.496 115.5 114.9 103.904 114.9 89.6Z" fill="#00B7DF" stroke="#FBFBF8" stroke-width="25"/><path fill-rule="evenodd" clip-rule="evenodd" d="M332.5 356.362C332.5 335.332 351.028 320.5 371 320.5C390.972 320.5 409.5 335.332 409.5 356.362V425.638C409.5 446.668 390.972 461.5 371 461.5C351.028 461.5 332.5 446.668 332.5 425.638V356.362Z" fill="#FBFBF8"/><path d="M217.3 333.3H294.7M256 391 295 391" stroke="#FBFBF8" stroke-width="25" stroke-linecap="round"/><path d="M114.9 333.3H166.7M115 391H206" stroke="#00B7DF" stroke-width="25" stroke-linecap="round"/><path d="M114.9 230.9H397.1M115 449H295" stroke="#FBFBF8" stroke-width="25" stroke-linecap="round"/><path d="M115.2 281.8H217.6" stroke="#00B7DF" stroke-width="25" stroke-linecap="round"/><path d="M268.8 281.8H396.8M294.1 179.7H320.3" stroke="#FBFBF8" stroke-width="25" stroke-linecap="round"/><path d="M114.9 179.7H243.5" stroke="#00B7DF" stroke-width="25" stroke-linecap="round"/><path d="M370.9 178.7H397.1" stroke="#FBFBF8" stroke-width="25" stroke-linecap="round"/></svg>