<svg xmlns="http://www.w3.org/2000/svg" viewBox="0 0 20 20"><path fill-rule="evenodd" clip-rule="evenodd" d="M0 20C0.740282 20 1.38663 19.5978 1.73244 19C1.90261 18.7058 2 18.3643 2 18V2C2 0.895431 2.89543 0 4 0H20C19.2597 0 18.6134 0.402199 18.2676 1C18.0974 1.29417 18 1.63571 18 2V18C18 19.1046 17.1046 20 16 20H0Z" fill="#0C0F2E"/><rect x="4.5" y="2.5" width="11" height="2" rx="1" fill="#FBFBF8" stroke="#007893"/><path fill="#FBFBF8" stroke="#007893" d="M4.5 15.5H11.5V17.5H4.5z"/><rect x="13.5" y="12.5" width="2" height="5" rx="1" fill="#0C0F2E" stroke="#FBFBF8"/><path stroke="#007893" stroke-linecap="round" d="M4.5 12.5 6.5 12.5"/><path stroke="#958F8F" stroke-linecap="round" d="M8.5 12.5 11.5 12.5"/><path stroke="#FBFBF8" stroke-linecap="round" d="M4.5 8.5 15.5 8.5"/><path d="M4.5 10.5H8.5" stroke="#007893" stroke-linecap="round"/><path d="M10.5 10.5 15.5 10.5M11.5 6.5 12.5 6.5" stroke="#958F8F" stroke-linecap="round"/><path stroke="#007893" stroke-linecap="round" d="M4.5 6.5 9.5 6.5"/><path stroke="#958F8F" stroke-linecap="round" d="M14.5 6.5 15.5 6.5"/></svg>