<svg viewBox="0 0 20 20" xmlns="http://www.w3.org/2000/svg"><path d="M17.5 2V18C17.5 18.8284 16.8284 19.5 16 19.5H2.00018C2.31403 19.0822 2.5 18.5628 2.5 18V2C2.5 1.17157 3.17157 0.5 4 0.5H17.9998C17.686 0.91783 17.5 1.4372 17.5 2Z" fill="#FBFBF8" stroke="#0C0F2E"/><rect x="4.5" y="2.5" width="11" height="2" rx="1" fill="#FBFBF8" stroke="#007893"/><path fill="#FBFBF8" stroke="#007893" d="M4.5 15.5H11.5V17.5H4.5z"/><rect x="13.5" y="13.5" width="2" height="4" rx="1" fill="#18F1F1" stroke="#0C0F2E"/><path stroke="#007893" stroke-linecap="round" d="M4.5 13.5 6.5 13.5"/><path stroke="#958F8F" stroke-linecap="round" d="M8.5 13.5 11.5 13.5"/><path stroke="#0C0F2E" stroke-linecap="round" d="M4.5 8.5 15.5 8.5"/><path d="M4.5 11.5H8.5" stroke="#007893" stroke-linecap="round"/><path d="M10.5 11.5 15.5 11.5M11.5 6.5 12.5 6.5" stroke="#958F8F" stroke-linecap="round"/><path stroke="#007893" stroke-linecap="round" d="M4.5 6.5 9.5 6.5"/><path stroke="#958F8F" stroke-linecap="round" d="M14.5 6.5 15.5 6.5"/></svg>