<svg xmlns="http://www.w3.org/2000/svg" viewBox="0 0 512 512"><path d="M121.053 0C92.7632 0 72.2313 22.8338 72.2313 51.0008V386.49C72.2313 437.292 46.02 492.078 0 512H409.778C438.067 512 461 489.166 461 460.999V51.0008C461 22.9105 437.19 0 409.778 0H121.053Z" fill="#282828"/><path d="M125.9 87.6C125.9 73.2958 137.496 61.7 151.8 61.7H382.2C396.504 61.7 408.1 73.2958 408.1 87.6C408.1 101.904 396.504 113.5 382.2 113.5H151.8C137.496 113.5 125.9 101.904 125.9 87.6Z" fill="#00B7DF" stroke="#FBFBF8" stroke-width="25"/><path fill-rule="evenodd" clip-rule="evenodd" d="M343.5 354.362C343.5 333.332 362.028 318.5 382 318.5C401.972 318.5 420.5 333.332 420.5 354.362V423.638C420.5 444.668 401.972 459.5 382 459.5C362.028 459.5 343.5 444.668 343.5 423.638V354.362Z" fill="#FBFBF8"/><path d="M228.3 331.3H305.7M267 389 306 389" stroke="#FBFBF8" stroke-width="25" stroke-linecap="round"/><path d="M125.9 331.3H177.7M126 389H217" stroke="#00B7DF" stroke-width="25" stroke-linecap="round"/><path d="M125.9 228.9H408.1M126 447H306" stroke="#FBFBF8" stroke-width="25" stroke-linecap="round"/><path d="M126.2 279.8H228.6" stroke="#00B7DF" stroke-width="25" stroke-linecap="round"/><path d="M279.8 279.8H407.8M305.1 177.7H331.3" stroke="#FBFBF8" stroke-width="25" stroke-linecap="round"/><path d="M125.9 177.7H254.5" stroke="#00B7DF" stroke-width="25" stroke-linecap="round"/><path d="M381.9 176.7H408.1" stroke="#FBFBF8" stroke-width="25" stroke-linecap="round"/></svg>