<svg viewBox="0 0 24 24" xmlns="http://www.w3.org/2000/svg"><path fill-rule="evenodd" clip-rule="evenodd" d="M4 18V20C4 21.1046 4.89543 22 6 22H17C18.1046 22 19 21.1046 19 20V18C19.5523 18 20 17.5523 20 17V12C20 11.4477 19.5523 11 19 11V4C19 2.89543 18.1046 2 17 2H6C4.89543 2 4 2.89543 4 4V11C3.44772 11 3 11.4477 3 12V17C3 17.5523 3.44772 18 4 18ZM6 18V20H17V18H6ZM17 13V12H14V17H15V15H16.5V14H15V13H17ZM17 11V4H6V11H17ZM6 12V17H7V15H8C8.55225 15 9 14.5522 9 14V13C9 12.4478 8.55225 12 8 12H6ZM10 17V12H11.5C12.3285 12 13 12.6715 13 13.5V15.5C13 16.3285 12.3285 17 11.5 17H10ZM11 16H11.5C11.7762 16 12 15.7762 12 15.5V13.5C12 13.2238 11.7762 13 11.5 13H11V16ZM8 14H7V13H8V14Z"/></svg>